<svg height="432" viewBox="0 0 678 432" width="678" xmlns="http://www.w3.org/2000/svg"><g fill="none" fill-rule="evenodd"><path d="m213.375.712h16.453c10.625 0 17.805.492 21.547 1.468 3.75.981 6.598 2.586 8.547 4.813 1.945 2.23 3.164 4.715 3.656 7.453.488 2.73.735 8.101.735 16.109v29.625c0 7.594-.36 12.672-1.079 15.235-.711 2.554-1.953 4.554-3.734 6-1.773 1.449-3.965 2.461-6.578 3.031-2.617.574-6.555.859-11.813.859h-27.734zm22 14.484v55.641c3.164 0 5.113-.633 5.844-1.907.726-1.269 1.094-4.726 1.094-10.375v-32.859c0-3.832-.122-6.285-.36-7.359-.242-1.082-.797-1.875-1.672-2.375-.875-.508-2.511-.766-4.906-.766zm84.293 36.672h-27.313v15c0 3.137.223 5.156.672 6.062.446.899 1.317 1.344 2.61 1.344 1.601 0 2.676-.598 3.218-1.797.54-1.195.813-3.519.813-6.969v-9.14h20v5.109c0 4.293-.273 7.59-.813 9.891-.531 2.293-1.792 4.746-3.781 7.359-1.992 2.606-4.511 4.563-7.562 5.875-3.043 1.301-6.86 1.953-11.453 1.953-4.461 0-8.399-.64-11.813-1.922-3.406-1.289-6.062-3.062-7.969-5.312-1.898-2.25-3.211-4.723-3.937-7.422-.731-2.695-1.094-6.625-1.094-11.781v-20.219c0-6.062.817-10.844 2.453-14.344 1.633-3.5 4.317-6.175 8.047-8.031 3.727-1.863 8.008-2.797 12.844-2.797 5.926 0 10.812 1.125 14.656 3.375 3.852 2.242 6.551 5.215 8.094 8.922 1.551 3.711 2.328 8.922 2.328 15.641zm-21.156-11.281v-5.079c0-3.582-.196-5.894-.578-6.937-.375-1.051-1.157-1.578-2.344-1.578-1.469 0-2.375.449-2.719 1.344-.344.886-.516 3.277-.516 7.171v5.079zm49.199-24.61-.844 9.094c3.063-6.52 7.504-9.969 13.328-10.344v24.391c-3.867 0-6.703.527-8.515 1.578-1.813 1.043-2.93 2.496-3.344 4.359-.418 1.867-.625 6.157-.625 12.875v27.375h-21.109v-69.328zm38.23-15.265v20.015c1.739-2.019 3.676-3.523 5.813-4.515 2.144-.989 4.473-1.485 6.984-1.485 2.883 0 5.391.453 7.516 1.36 2.125.898 3.742 2.168 4.859 3.812 1.114 1.637 1.785 3.242 2.016 4.813.226 1.562.344 4.902.344 10.015v31.25c0 5.086-.344 8.871-1.032 11.36-.679 2.492-2.273 4.652-4.781 6.484-2.5 1.82-5.476 2.734-8.922 2.734-2.48 0-4.793-.539-6.937-1.609-2.137-1.082-4.09-2.703-5.86-4.859l-1.359 5.218h-19.75v-84.593zm6.422 34.953c0-3.582-.23-5.922-.687-7.016-.449-1.102-1.336-1.656-2.656-1.656-1.293 0-2.133.48-2.516 1.437-.375.961-.563 3.371-.563 7.235v29.89c0 3.731.211 6.117.641 7.157.438 1.043 1.301 1.562 2.594 1.562 1.32 0 2.179-.535 2.578-1.609.406-1.082.609-3.676.609-7.782zm72.239-19.688-6.063 50.156c-.949 7.938-1.746 13.356-2.391 16.25-.636 2.887-1.703 5.266-3.203 7.141-1.5 1.883-3.586 3.27-6.25 4.156-2.656.895-6.914 1.344-12.765 1.344h-12.797v-11.078c3.269 0 5.375-.16 6.312-.484.938-.332 1.407-1.079 1.407-2.235 0-.551-.434-2.972-1.297-7.265l-11.547-57.985h19.172l6.89 46.75 3.344-46.75zm-139.309 94.762h-9.25v-6.188c0-1.8-.102-2.925-.297-3.375-.199-.445-.633-.671-1.297-.671-.761 0-1.246.273-1.453.812-.211.543-.312 1.715-.312 3.516v16.515c0 1.731.101 2.86.312 3.391.207.523.672.781 1.391.781.687 0 1.133-.258 1.343-.781.208-.531.313-1.77.313-3.719v-4.453h9.25v1.375c0 3.68-.262 6.289-.781 7.828-.512 1.543-1.657 2.891-3.438 4.047s-3.976 1.734-6.578 1.734c-2.719 0-4.961-.492-6.719-1.468-1.75-.989-2.914-2.348-3.484-4.078-.574-1.739-.859-4.352-.859-7.844v-10.391c0-2.562.086-4.484.265-5.765.176-1.282.696-2.516 1.563-3.704.875-1.187 2.082-2.117 3.625-2.796 1.551-.688 3.332-1.032 5.343-1.032 2.719 0 4.961.532 6.735 1.594 1.781 1.055 2.945 2.367 3.5 3.938.551 1.574.828 4.027.828 7.359zm3.316-10.875h9.141v-4.641h-9.141zm0 30.937h9.141v-29.156h-9.141zm21.766-33.046v4.593h2.406v4.61h-2.406v15.609c0 1.918.098 2.984.297 3.203.195.219 1.023.328 2.484.328v4.703h-3.593c-2.024 0-3.465-.082-4.329-.25a4.544 4.544 0 0 1 -2.281-1.156c-.656-.613-1.07-1.312-1.234-2.094-.156-.789-.235-2.632-.235-5.531v-14.812h-1.921v-4.61h1.921v-4.593zm23.949 3.89-2.547 21.094c-.398 3.344-.73 5.625-1 6.844-.273 1.211-.726 2.207-1.359 3-.625.789-1.5 1.375-2.625 1.75-1.117.375-2.906.562-5.375.562h-5.375v-4.672c1.375 0 2.258-.066 2.656-.203.395-.133.594-.445.594-.937 0-.227-.184-1.243-.547-3.047l-4.859-24.391h8.062l2.906 19.656 1.407-19.656zm-164.832 203.406h19.485c6.156 0 10.816.481 13.984 1.438 3.176.961 5.738 2.902 7.687 5.828 1.946 2.918 2.922 7.621 2.922 14.109 0 4.399-.695 7.461-2.078 9.188-1.375 1.73-4.086 3.058-8.125 3.984 4.508 1.024 7.567 2.715 9.172 5.078 1.613 2.368 2.422 5.996 2.422 10.891v6.953c0 5.074-.586 8.836-1.75 11.281-1.156 2.438-3.008 4.106-5.547 5-2.531.899-7.726 1.344-15.578 1.344h-22.594zm19.531 12.844v16.703a56.092 56.092 0 0 1 1.954-.047c1.914 0 3.132-.468 3.656-1.406.531-.945.797-3.648.797-8.109 0-2.352-.219-4-.657-4.938-.429-.945-.992-1.539-1.687-1.781-.699-.25-2.055-.391-4.063-.422zm0 28.391v21.015c2.75-.093 4.504-.523 5.266-1.296.758-.782 1.141-2.688 1.141-5.719v-7c0-3.219-.344-5.164-1.032-5.844-.679-.676-2.468-1.062-5.375-1.156zm74.606-6.078v15.078c0 5.531-.281 9.59-.844 12.172-.555 2.586-1.742 4.996-3.562 7.234-1.825 2.242-4.168 3.898-7.032 4.969-2.855 1.062-6.136 1.594-9.843 1.594-4.149 0-7.657-.454-10.532-1.36-2.875-.914-5.109-2.289-6.703-4.125-1.593-1.844-2.734-4.07-3.422-6.687-.679-2.614-1.015-6.536-1.015-11.766v-15.766c0-5.718.617-10.187 1.859-13.406 1.238-3.219 3.461-5.801 6.672-7.75 3.219-1.945 7.332-2.922 12.344-2.922 4.207 0 7.816.633 10.828 1.891 3.019 1.25 5.348 2.883 6.984 4.891 1.633 2.011 2.754 4.085 3.36 6.218.601 2.125.906 5.371.906 9.735zm-18.734-4.641c0-3.156-.172-5.141-.516-5.953-.336-.82-1.059-1.234-2.172-1.234-1.117 0-1.859.414-2.234 1.234-.368.812-.547 2.797-.547 5.953v27.781c0 2.907.179 4.805.547 5.688.375.886 1.101 1.328 2.187 1.328 1.113 0 1.848-.399 2.203-1.203.352-.813.532-2.547.532-5.203zm61.871-16.984-7.469 29.422 9.047 32.14h-18.235c-1.793-8.101-3.152-15.078-4.078-20.922a449.533 449.533 0 0 1 -4.047 20.922h-15.671l8.078-32.14-8.078-29.422h15.671c2.508 12.562 3.86 19.695 4.047 21.39 1.789-10.476 3.149-17.609 4.078-21.39zm3.914-3.75h19.297v-9.782h-19.297zm0 65.312h19.297v-61.562h-19.297zm44.933-61.562-.328 5.672c1.363-2.258 3.024-3.954 4.985-5.079 1.968-1.132 4.234-1.703 6.796-1.703 3.219 0 5.848.762 7.891 2.282 2.039 1.511 3.352 3.417 3.938 5.718.593 2.305.89 6.149.89 11.532v43.14h-18.75v-42.625c0-4.238-.14-6.82-.422-7.75-.273-.926-1.043-1.39-2.312-1.39-1.336 0-2.172.539-2.516 1.609-.336 1.062-.5 3.914-.5 8.547v41.609h-18.734v-61.562zm73.039 0v47.422c0 6.398-.148 10.531-.437 12.406-.293 1.863-1.34 3.836-3.141 5.922-1.793 2.093-4.289 3.687-7.484 4.781-3.199 1.101-7.227 1.656-12.078 1.656-5.969 0-10.766-1.015-14.391-3.047-3.617-2.023-5.484-6-5.609-11.937h18.187c0 2.719.989 4.078 2.969 4.078 1.414 0 2.359-.414 2.828-1.25.469-.832.703-2.578.703-5.234v-4.641c-1.617 1.449-3.312 2.547-5.094 3.297a14.3 14.3 0 0 1 -5.578 1.109c-3.375 0-6.152-.68-8.328-2.047-2.179-1.363-3.672-3.148-4.484-5.359-.805-2.207-1.203-5.352-1.203-9.438v-22.359c0-5.844 1.051-10.047 3.156-12.609 2.102-2.571 5.305-3.86 9.609-3.86 2.344 0 4.477.481 6.407 1.438 1.937.961 3.664 2.398 5.187 4.312l1.344-4.64zm-18.781 16.328c0-2.813-.168-4.602-.5-5.375-.324-.77-1.039-1.156-2.141-1.156-1.085 0-1.851.445-2.296 1.328-.45.875-.672 2.609-.672 5.203v20.703c0 2.75.164 4.539.5 5.359.343.813 1.054 1.219 2.14 1.219 1.227 0 2.032-.492 2.407-1.484.375-.989.562-3.227.562-6.719zm-179.801 54.695 5.532 37.156h-9.891l-.484-6.672h-3.469l-.563 6.672h-10.015l4.922-37.156zm-5.109 23.891c-.492-4.207-.981-9.399-1.469-15.578-.98 7.093-1.594 12.289-1.844 15.578zm32.336-5.688h-8.734v-3.515c0-1.219-.102-2.047-.297-2.485-.2-.437-.571-.656-1.11-.656-.531 0-.89.195-1.078.578-.18.375-.265 1.231-.265 2.563v14.375c0 1.086.132 1.898.406 2.437.269.543.676.813 1.219.813.625 0 1.046-.282 1.265-.844.227-.57.344-1.645.344-3.219v-3.625h8.25c-.012 2.438-.102 4.266-.266 5.484-.156 1.211-.668 2.454-1.531 3.735a8.3 8.3 0 0 1 -3.391 2.89c-1.386.645-3.105.969-5.156.969-2.617 0-4.687-.449-6.219-1.344-1.531-.894-2.617-2.148-3.25-3.765-.636-1.613-.953-3.899-.953-6.86v-8.656c0-2.582.258-4.531.782-5.844.519-1.32 1.628-2.5 3.328-3.531 1.695-1.031 3.765-1.547 6.203-1.547 2.414 0 4.476.516 6.187 1.547 1.719 1.024 2.86 2.313 3.422 3.875.563 1.555.844 3.762.844 6.625zm10.855.297h-8.703v-2.047c0-2.351.27-4.164.813-5.437.551-1.282 1.644-2.41 3.281-3.391 1.633-.976 3.758-1.469 6.375-1.469 3.133 0 5.5.559 7.094 1.672 1.593 1.106 2.547 2.465 2.859 4.078.32 1.618.484 4.938.484 9.969v15.281h-9.015v-2.703c-.563 1.086-1.293 1.899-2.188 2.438-.898.539-1.964.812-3.203.812a7.864 7.864 0 0 1 -4.469-1.359c-1.355-.914-2.031-2.91-2.031-5.985v-2.5c0-2.281.36-3.832 1.078-4.656.719-.82 2.504-1.785 5.36-2.89 3.039-1.196 4.664-2 4.875-2.407.218-.414.328-1.257.328-2.531 0-1.594-.121-2.629-.36-3.109-.242-.477-.632-.719-1.171-.719-.637 0-1.032.203-1.188.609-.148.407-.219 1.461-.219 3.157zm2.938 4.172c-1.481 1.086-2.34 1.996-2.578 2.734-.242.731-.36 1.789-.36 3.172 0 1.574.102 2.59.313 3.047.207.461.613.688 1.219.688.582 0 .961-.176 1.14-.532.176-.363.266-1.312.266-2.843zm33.387-22.672v37.156h-9.282v-2.203c-.886.918-1.82 1.606-2.797 2.063a7.204 7.204 0 0 1 -3.078.687c-1.437 0-2.687-.375-3.75-1.125-1.054-.758-1.73-1.633-2.031-2.625-.293-1-.437-2.625-.437-4.875v-14.25c0-2.344.144-4.004.437-4.984.301-.977.988-1.836 2.063-2.578 1.07-.739 2.351-1.11 3.843-1.11 1.145 0 2.192.211 3.141.625.957.407 1.828 1.024 2.609 1.844v-8.625zm-9.282 14.375c0-1.125-.101-1.875-.297-2.25-.187-.383-.562-.578-1.125-.578-.554 0-.921.172-1.109.516-.187.343-.281 1.117-.281 2.312v14.906c0 1.243.086 2.059.265 2.453.188.387.54.579 1.063.579.594 0 .988-.219 1.187-.657.196-.437.297-1.504.297-3.203zm33.43 8.094h-12v6.594c0 1.375.098 2.261.297 2.656.195.398.578.594 1.141.594.707 0 1.175-.258 1.406-.782.238-.531.359-1.554.359-3.078v-4.015h8.797v2.25c0 1.886-.121 3.336-.359 4.343-.243 1.012-.797 2.09-1.672 3.235a7.982 7.982 0 0 1 -3.313 2.578c-1.336.57-3.011.859-5.031.859-1.961 0-3.687-.281-5.187-.844-1.5-.562-2.668-1.335-3.5-2.328a8.401 8.401 0 0 1 -1.735-3.265c-.324-1.188-.484-2.91-.484-5.172v-8.875c0-2.664.359-4.766 1.078-6.297.719-1.539 1.894-2.719 3.531-3.531 1.645-.821 3.531-1.235 5.656-1.235 2.594 0 4.735.496 6.422 1.485 1.696.98 2.883 2.289 3.563 3.922.687 1.625 1.031 3.914 1.031 6.859zm-9.297-4.953v-2.235c0-1.57-.086-2.586-.25-3.047-.168-.457-.512-.687-1.031-.687-.649 0-1.047.199-1.203.594-.149.386-.219 1.433-.219 3.14v2.235zm21.328-10.813-.156 2.891c.719-1.145 1.57-2.004 2.563-2.578.988-.571 2.117-.86 3.39-.86 2.477 0 4.43 1.149 5.86 3.438.781-1.145 1.66-2.004 2.64-2.578.977-.571 2.063-.86 3.25-.86 1.582 0 2.891.387 3.922 1.157 1.031.761 1.691 1.699 1.984 2.812.289 1.106.438 2.902.438 5.391v21.64h-9v-19.843c0-2.602-.09-4.211-.266-4.829-.179-.625-.586-.937-1.218-.937-.668 0-1.094.309-1.282.922-.187.605-.281 2.219-.281 4.844v19.843h-9v-19.343c0-2.989-.074-4.782-.219-5.375-.148-.594-.547-.891-1.203-.891a1.39 1.39 0 0 0 -1.062.469c-.293.312-.453.699-.485 1.156-.023.449-.031 1.406-.031 2.875v21.109h-9v-30.453zm46.25 0-2.656 22.031c-.418 3.493-.766 5.872-1.047 7.141-.281 1.274-.75 2.316-1.406 3.141-.656.82-1.574 1.425-2.75 1.812-1.168.395-3.039.594-5.609.594h-5.625v-4.859c1.437 0 2.363-.071 2.781-.219.414-.145.625-.473.625-.985 0-.238-.196-1.3-.578-3.187l-5.078-25.469h8.421l3.032 20.531 1.468-20.531z" fill="#828282"/><path d="m478.57 52.669v32.574c70.414 17.906 122.821 48.574 145.442 85.113h46.324c-22.582-52.07-93.746-95.746-191.766-117.687zm-279.195.019c-97.906 21.969-168.965 65.629-191.508 117.668h46.035c22.606-36.559 75.028-67.246 145.473-85.156zm-197.102 134.996a84.775 84.775 0 0 0 -2.273 17.672c.18 65.863 78.152 125.586 199.375 152.707v-22.152c-97.055-24.649-157.738-72.856-157.801-125.36.117-7.664 1.531-15.312 4.231-22.867zm630.102 0c2.621 7.559 3.961 15.203 4 22.867-.09 52.493-60.773 100.68-157.805 125.321v22.25c121.262-27.133 199.243-86.883 199.379-152.766a84.575 84.575 0 0 0 -1.976-17.672z" fill="#fff"/><g fill="#828282"><path d="m200.426 116.329a8.156 8.156 0 0 0 -8.031 8.265v164.121h16.296v-164.121a8.15 8.15 0 0 0 -8.265-8.265z"/><path d="m200.762 129.571c-8.535-.223-10.489 11.855-2.321 14.332l101.145 32.328c9.434 3.258 14.043-11.101 4.477-13.945l-101.145-32.328a7.328 7.328 0 0 0 -2.156-.387zm100.765 97.051a7.487 7.487 0 0 0 -1.941.375l-100.445 32.246c-9.567 2.84-4.957 17.203 4.476 13.945l100.446-32.246c8.277-2.52 6.109-14.793-2.536-14.32zm-19.57-17.981a7.743 7.743 0 0 0 -.504.031l-79.758 5.786c-10.113.386-8.976 15.707 1.086 14.597l79.758-5.781c9.473-.644 8.914-14.738-.582-14.633zm-81.258-34.863c-8.957.469-9.379 13.539-.469 14.586l57.813 7.598c9.941 1.648 11.961-13.5 1.93-14.512l-57.813-7.598a7.347 7.347 0 0 0 -1.461-.074zm279.094-57.449a8.154 8.154 0 0 1 8.035 8.265v164.121h-16.301v-164.121a8.168 8.168 0 0 1 2.387-5.879 8.167 8.167 0 0 1 5.879-2.386z"/><path d="m479.461 131.907c8.535-.223 10.488 11.855 2.316 14.332l-101.14 32.332c-9.438 3.258-14.047-11.106-4.477-13.945l101.141-32.332a7.511 7.511 0 0 1 2.16-.387zm-60.453 107.41c-.492 3.668-1.512 9.242-2.535 14.566l60.129 19.305c9.437 3.258 14.046-11.105 4.476-13.945zm-20.746-30.676c.168.004.34.016.504.031l79.757 5.786c10.118.386 8.977 15.707-1.082 14.597l-79.757-5.781c-9.473-.644-8.914-14.738.578-14.633zm81.258-34.863c8.96.469 9.382 13.539.472 14.586l-57.812 7.598c-9.946 1.648-11.961-13.5-1.934-14.512l57.813-7.598a7.362 7.362 0 0 1 1.461-.074z"/></g><path d="m245.297 277.844s52.125 1.293 51.781 0c-.348-1.289 0-8.996 0-8.996h-2.387v-6.98s7.344-8.078 9.457-16.617c0 0 8.813 15.058 14.872 21.761 6.062 6.7 10.375 9.914 15.703 4.68 5.324-5.23 12.484-25.062 12.484-25.062s8.082-6.797 7.898-16.344c0 0 3.204-1.039 3.204-3.895 0-2.855 4.414-9.969 4.875-15.754.457-5.785-.645-19.187-11.02-20.472s-14.871 3.027-15.422 9.273c-.551 6.242 0 14.688 5.324 16.25 0 0-3.855 2.02-.828 7.16 0 0-2.019.918-1.836 3.856.184 2.941.184 3.125.184 3.125s-1.559 1.101-2.293 4.312c-.734 3.215-.184 3.766-.551 3.856-.367.093-6.887 8.082-6.887 8.082s-2.753-12.211-9.273-15.793c0 0-.828-14.231-10.285-17.168-9.453-2.938-10.281-2.938-10.281-2.938s-.071-4.824 2.718-6.64c2.793-1.817 3.704-2.336 6.235-1.559s7.297 1.449 7.183-1.351c-.117-2.801.457-3.672 1.539-3.559 1.079.117 2.086.625 2.247-.332.164-.957-.528-1.481.39-1.664.918-.184 1.586-.231 1.516-.848-.067-.621-.895-2.824 1.011-2.824 1.903 0 2.54.969 2.149-2.859-.391-3.832-.262-4.286 1.168-5.258 1.43-.977 1.625-2.731 1.625-4.805 0-2.078 1.035-2.726 3.34-2.793 2.304-.066 2.664-2.629 2.664-2.629l-2.078.129s2.047-.875 1.816-2.465c-.226-1.593-1.168-1.98-1.328-1.98-.164 0 3.113-2.371 1.785-3.117-1.332-.746-3.5.894-5.609-2.043-2.114-2.938-3.645-3.02-7.864-4.711-4.218-1.688-6.039-2.207-9.8-2.856-3.766-.648-3.118-3.179-6.95-1.883-3.828 1.301-14.773 7.567-17.164 14.086-2.386 6.52-3.285 13.637-5.234 13.637-1.945 0-1.945-1.949-1.945-1.949s-2.86 3.375.972 5.453c0 0-5.086 1.957-12.613-1.074-7.527-3.028-12.668-6.332-19.465-2.754-6.793 3.582-10.511 11.101-12.59 15.387-2.074 4.285-14.539 5.062-17.265 16.75-2.731 11.683 7.547 17.718 13.789 15.882s5.14-1.652 5.14-1.652-2.57 23.137 2.571 30.848c5.144 7.715 5.328 19.097 5.328 19.097z" fill="#fff"/><path d="m388.152 143.313c-6.593-.058-8.582 1.426-12.117 5.442-4.039 4.593-6.793 12.488-6.793 12.488s-6.242-2.203-11.75 3.304c0 0-13.406 9.918-9 15.793s18.547 18.915 26.446 37.278c7.894 18.359 9.542 23.137 15.238 23.137 5.691 0 11.937-7.165 11.937-7.165l.731 5.141s-7.711 3.492-8.262 12.856c-.551 9.363-2.125 12.718-2.906 19.21-.778 6.493-1.555 7.012-1.555 7.012h51.414s2.602-20.515.262-24.668c-2.336-4.156-6.231-7.531-.52-15.582 5.715-8.051 15.004-32.98 1.414-52.812-13.586-19.832-24.523-12.11-24.914-17.696-.39-5.582.77-2.414-3.086-4.984-3.859-2.57-14.234-18.086-23.414-18.637a59.95 59.95 0 0 0 -3.125-.117zm-1.41 45.555c2.86 3.894 10.778 5.582 10.778 5.582l-.735 5.535c-3.121 2.758-6.609 9-6.609 9-5.399-9.227-3.434-20.117-3.434-20.117z" fill="#fff"/></g></svg>